<mxfile host="app.diagrams.net" modified="2023-11-07T06:22:57.554Z" agent="Mozilla/5.0 (Windows NT 10.0; Win64; x64) AppleWebKit/537.36 (KHTML, like Gecko) Chrome/119.0.0.0 Safari/537.36 Edg/119.0.0.0" etag="LTLWvZbRx8wurJaFLOW5" version="21.8.2" type="device">
  <diagram name="Page-1" id="tVJbM0QFH8Vj0zSCTGPi">
    <mxGraphModel dx="1042" dy="577" grid="1" gridSize="10" guides="1" tooltips="1" connect="1" arrows="1" fold="1" page="1" pageScale="1" pageWidth="850" pageHeight="1100" math="0" shadow="0">
      <root>
        <mxCell id="0" />
        <mxCell id="1" parent="0" />
        <mxCell id="wuafn8Rh87BKBdAyfIPy-2" value="" style="sketch=0;html=1;dashed=0;whitespace=wrap;fillColor=#2875E2;strokeColor=#ffffff;points=[[0.005,0.63,0],[0.1,0.2,0],[0.9,0.2,0],[0.5,0,0],[0.995,0.63,0],[0.72,0.99,0],[0.5,1,0],[0.28,0.99,0]];verticalLabelPosition=bottom;align=center;verticalAlign=top;shape=mxgraph.kubernetes.icon;prIcon=pod" vertex="1" parent="1">
          <mxGeometry x="150" y="240" width="50" height="48" as="geometry" />
        </mxCell>
        <mxCell id="wuafn8Rh87BKBdAyfIPy-3" value="" style="sketch=0;html=1;dashed=0;whitespace=wrap;fillColor=#2875E2;strokeColor=#ffffff;points=[[0.005,0.63,0],[0.1,0.2,0],[0.9,0.2,0],[0.5,0,0],[0.995,0.63,0],[0.72,0.99,0],[0.5,1,0],[0.28,0.99,0]];verticalLabelPosition=bottom;align=center;verticalAlign=top;shape=mxgraph.kubernetes.icon;prIcon=pod" vertex="1" parent="1">
          <mxGeometry x="160" y="250" width="50" height="48" as="geometry" />
        </mxCell>
        <mxCell id="wuafn8Rh87BKBdAyfIPy-4" value="" style="sketch=0;html=1;dashed=0;whitespace=wrap;fillColor=#2875E2;strokeColor=#ffffff;points=[[0.005,0.63,0],[0.1,0.2,0],[0.9,0.2,0],[0.5,0,0],[0.995,0.63,0],[0.72,0.99,0],[0.5,1,0],[0.28,0.99,0]];verticalLabelPosition=bottom;align=center;verticalAlign=top;shape=mxgraph.kubernetes.icon;prIcon=pod" vertex="1" parent="1">
          <mxGeometry x="170" y="270" width="50" height="48" as="geometry" />
        </mxCell>
        <mxCell id="wuafn8Rh87BKBdAyfIPy-6" value="" style="rounded=0;whiteSpace=wrap;html=1;shadow=0;fillColor=none;" vertex="1" parent="1">
          <mxGeometry x="130" y="240" width="110" height="80" as="geometry" />
        </mxCell>
        <mxCell id="wuafn8Rh87BKBdAyfIPy-7" value="" style="endArrow=classic;startArrow=classic;html=1;rounded=0;" edge="1" parent="1">
          <mxGeometry width="50" height="50" relative="1" as="geometry">
            <mxPoint x="184.5" y="240" as="sourcePoint" />
            <mxPoint x="185" y="160" as="targetPoint" />
          </mxGeometry>
        </mxCell>
        <mxCell id="wuafn8Rh87BKBdAyfIPy-8" value="" style="sketch=0;html=1;dashed=0;whitespace=wrap;fillColor=#2875E2;strokeColor=#ffffff;points=[[0.005,0.63,0],[0.1,0.2,0],[0.9,0.2,0],[0.5,0,0],[0.995,0.63,0],[0.72,0.99,0],[0.5,1,0],[0.28,0.99,0]];verticalLabelPosition=bottom;align=center;verticalAlign=top;shape=mxgraph.kubernetes.icon;prIcon=svc" vertex="1" parent="1">
          <mxGeometry x="160" y="100" width="50" height="48" as="geometry" />
        </mxCell>
        <mxCell id="wuafn8Rh87BKBdAyfIPy-9" value="" style="rounded=0;whiteSpace=wrap;html=1;fillColor=none;" vertex="1" parent="1">
          <mxGeometry x="130" y="90" width="110" height="70" as="geometry" />
        </mxCell>
        <mxCell id="wuafn8Rh87BKBdAyfIPy-11" value="" style="rounded=0;whiteSpace=wrap;html=1;shape=image;labelBackgroundColor=default;verticalAlign=top;verticalLabelPosition=bottom;aspect=fixed;points=[];image=img/lib/azure2/networking/Public_IP_Addresses_Classic.svg;" vertex="1" parent="1">
          <mxGeometry x="360" y="97" width="102" height="51" as="geometry" />
        </mxCell>
        <mxCell id="wuafn8Rh87BKBdAyfIPy-12" value="" style="endArrow=classic;startArrow=classic;html=1;rounded=0;exitX=1;exitY=0.5;exitDx=0;exitDy=0;" edge="1" parent="1" source="wuafn8Rh87BKBdAyfIPy-9" target="wuafn8Rh87BKBdAyfIPy-11">
          <mxGeometry width="50" height="50" relative="1" as="geometry">
            <mxPoint x="270" y="140" as="sourcePoint" />
            <mxPoint x="320" y="90" as="targetPoint" />
          </mxGeometry>
        </mxCell>
        <mxCell id="wuafn8Rh87BKBdAyfIPy-13" value="" style="rounded=0;whiteSpace=wrap;html=1;fillColor=none;" vertex="1" parent="1">
          <mxGeometry x="360" y="90" width="110" height="70" as="geometry" />
        </mxCell>
        <mxCell id="wuafn8Rh87BKBdAyfIPy-14" value="" style="rounded=0;whiteSpace=wrap;html=1;fillColor=none;" vertex="1" parent="1">
          <mxGeometry x="130" y="380" width="110" height="70" as="geometry" />
        </mxCell>
        <mxCell id="wuafn8Rh87BKBdAyfIPy-15" value="" style="sketch=0;html=1;dashed=0;whitespace=wrap;fillColor=#2875E2;strokeColor=#ffffff;points=[[0.005,0.63,0],[0.1,0.2,0],[0.9,0.2,0],[0.5,0,0],[0.995,0.63,0],[0.72,0.99,0],[0.5,1,0],[0.28,0.99,0]];verticalLabelPosition=bottom;align=center;verticalAlign=top;shape=mxgraph.kubernetes.icon;prIcon=svc" vertex="1" parent="1">
          <mxGeometry x="160" y="391" width="50" height="48" as="geometry" />
        </mxCell>
        <mxCell id="wuafn8Rh87BKBdAyfIPy-16" value="" style="endArrow=classic;startArrow=classic;html=1;rounded=0;entryX=0.5;entryY=1;entryDx=0;entryDy=0;exitX=0.5;exitY=0;exitDx=0;exitDy=0;" edge="1" parent="1" source="wuafn8Rh87BKBdAyfIPy-14" target="wuafn8Rh87BKBdAyfIPy-6">
          <mxGeometry width="50" height="50" relative="1" as="geometry">
            <mxPoint x="150" y="380" as="sourcePoint" />
            <mxPoint x="200" y="330" as="targetPoint" />
          </mxGeometry>
        </mxCell>
        <mxCell id="wuafn8Rh87BKBdAyfIPy-17" value="" style="sketch=0;html=1;dashed=0;whitespace=wrap;fillColor=#2875E2;strokeColor=#ffffff;points=[[0.005,0.63,0],[0.1,0.2,0],[0.9,0.2,0],[0.5,0,0],[0.995,0.63,0],[0.72,0.99,0],[0.5,1,0],[0.28,0.99,0]];verticalLabelPosition=bottom;align=center;verticalAlign=top;shape=mxgraph.kubernetes.icon;prIcon=ing" vertex="1" parent="1">
          <mxGeometry x="386" y="391" width="50" height="48" as="geometry" />
        </mxCell>
        <mxCell id="wuafn8Rh87BKBdAyfIPy-18" value="" style="rounded=0;whiteSpace=wrap;html=1;fillColor=none;" vertex="1" parent="1">
          <mxGeometry x="360" y="380" width="110" height="70" as="geometry" />
        </mxCell>
        <mxCell id="wuafn8Rh87BKBdAyfIPy-19" value="" style="endArrow=classic;startArrow=classic;html=1;rounded=0;entryX=0;entryY=0.5;entryDx=0;entryDy=0;exitX=1;exitY=0.5;exitDx=0;exitDy=0;" edge="1" parent="1" source="wuafn8Rh87BKBdAyfIPy-14" target="wuafn8Rh87BKBdAyfIPy-18">
          <mxGeometry width="50" height="50" relative="1" as="geometry">
            <mxPoint x="240" y="420" as="sourcePoint" />
            <mxPoint x="290" y="370" as="targetPoint" />
          </mxGeometry>
        </mxCell>
        <mxCell id="wuafn8Rh87BKBdAyfIPy-20" value="" style="image;aspect=fixed;html=1;points=[];align=center;fontSize=12;image=img/lib/azure2/networking/Public_IP_Addresses.svg;" vertex="1" parent="1">
          <mxGeometry x="580" y="389" width="51.25" height="41" as="geometry" />
        </mxCell>
        <mxCell id="wuafn8Rh87BKBdAyfIPy-21" value="" style="rounded=0;whiteSpace=wrap;html=1;fillColor=none;" vertex="1" parent="1">
          <mxGeometry x="550" y="380" width="120" height="70" as="geometry" />
        </mxCell>
        <mxCell id="wuafn8Rh87BKBdAyfIPy-22" value="" style="endArrow=classic;startArrow=classic;html=1;rounded=0;entryX=0;entryY=0.5;entryDx=0;entryDy=0;" edge="1" parent="1" target="wuafn8Rh87BKBdAyfIPy-21">
          <mxGeometry width="50" height="50" relative="1" as="geometry">
            <mxPoint x="470" y="415" as="sourcePoint" />
            <mxPoint x="520" y="370" as="targetPoint" />
          </mxGeometry>
        </mxCell>
        <mxCell id="wuafn8Rh87BKBdAyfIPy-23" value="" style="image;sketch=0;aspect=fixed;html=1;points=[];align=center;fontSize=12;image=img/lib/mscae/DNS.svg;" vertex="1" parent="1">
          <mxGeometry x="700" y="120" width="50" height="50" as="geometry" />
        </mxCell>
        <mxCell id="wuafn8Rh87BKBdAyfIPy-24" value="" style="sketch=0;html=1;dashed=0;whitespace=wrap;fillColor=#2875E2;strokeColor=#ffffff;points=[[0.005,0.63,0],[0.1,0.2,0],[0.9,0.2,0],[0.5,0,0],[0.995,0.63,0],[0.72,0.99,0],[0.5,1,0],[0.28,0.99,0]];verticalLabelPosition=bottom;align=center;verticalAlign=top;shape=mxgraph.kubernetes.icon;prIcon=pod" vertex="1" parent="1">
          <mxGeometry x="550" y="254" width="50" height="48" as="geometry" />
        </mxCell>
        <mxCell id="wuafn8Rh87BKBdAyfIPy-25" value="" style="rounded=0;whiteSpace=wrap;html=1;fillColor=none;" vertex="1" parent="1">
          <mxGeometry x="511.25" y="240" width="120" height="80" as="geometry" />
        </mxCell>
        <mxCell id="wuafn8Rh87BKBdAyfIPy-26" value="Public IP" style="text;html=1;strokeColor=none;fillColor=none;align=center;verticalAlign=middle;whiteSpace=wrap;rounded=0;" vertex="1" parent="1">
          <mxGeometry x="360" y="60" width="110" height="30" as="geometry" />
        </mxCell>
        <mxCell id="wuafn8Rh87BKBdAyfIPy-27" value="Service Type: LB" style="text;html=1;strokeColor=none;fillColor=none;align=center;verticalAlign=middle;whiteSpace=wrap;rounded=0;" vertex="1" parent="1">
          <mxGeometry x="130" y="60" width="100" height="30" as="geometry" />
        </mxCell>
        <mxCell id="wuafn8Rh87BKBdAyfIPy-30" value="Pods" style="text;html=1;strokeColor=none;fillColor=none;align=center;verticalAlign=middle;whiteSpace=wrap;rounded=0;" vertex="1" parent="1">
          <mxGeometry x="200" y="320" width="60" height="30" as="geometry" />
        </mxCell>
        <mxCell id="wuafn8Rh87BKBdAyfIPy-31" value="Service Type: ClusterIP" style="text;html=1;strokeColor=none;fillColor=none;align=center;verticalAlign=middle;whiteSpace=wrap;rounded=0;" vertex="1" parent="1">
          <mxGeometry x="120" y="450" width="130" height="30" as="geometry" />
        </mxCell>
        <mxCell id="wuafn8Rh87BKBdAyfIPy-32" value="Ingress resources" style="text;html=1;strokeColor=none;fillColor=none;align=center;verticalAlign=middle;whiteSpace=wrap;rounded=0;" vertex="1" parent="1">
          <mxGeometry x="360" y="450" width="110" height="30" as="geometry" />
        </mxCell>
        <mxCell id="wuafn8Rh87BKBdAyfIPy-34" value="Public IP&amp;nbsp;" style="text;html=1;strokeColor=none;fillColor=none;align=center;verticalAlign=middle;whiteSpace=wrap;rounded=0;" vertex="1" parent="1">
          <mxGeometry x="580" y="450" width="60" height="30" as="geometry" />
        </mxCell>
        <mxCell id="wuafn8Rh87BKBdAyfIPy-35" value="External DNS&amp;nbsp;" style="text;html=1;strokeColor=none;fillColor=none;align=center;verticalAlign=middle;whiteSpace=wrap;rounded=0;" vertex="1" parent="1">
          <mxGeometry x="540" y="210" width="60" height="30" as="geometry" />
        </mxCell>
        <mxCell id="wuafn8Rh87BKBdAyfIPy-36" value="" style="endArrow=classic;startArrow=classic;html=1;rounded=0;" edge="1" parent="1">
          <mxGeometry width="50" height="50" relative="1" as="geometry">
            <mxPoint x="560" y="240" as="sourcePoint" />
            <mxPoint x="690" y="150" as="targetPoint" />
            <Array as="points">
              <mxPoint x="560" y="150" />
            </Array>
          </mxGeometry>
        </mxCell>
        <mxCell id="wuafn8Rh87BKBdAyfIPy-37" value="Service Principle" style="text;html=1;strokeColor=none;fillColor=none;align=center;verticalAlign=middle;whiteSpace=wrap;rounded=0;" vertex="1" parent="1">
          <mxGeometry x="560" y="160" width="110" height="30" as="geometry" />
        </mxCell>
        <mxCell id="wuafn8Rh87BKBdAyfIPy-38" value="" style="sketch=0;html=1;dashed=0;whitespace=wrap;fillColor=#2875E2;strokeColor=#ffffff;points=[[0.005,0.63,0],[0.1,0.2,0],[0.9,0.2,0],[0.5,0,0],[0.995,0.63,0],[0.72,0.99,0],[0.5,1,0],[0.28,0.99,0]];verticalLabelPosition=bottom;align=center;verticalAlign=top;shape=mxgraph.kubernetes.icon;prIcon=role" vertex="1" parent="1">
          <mxGeometry x="360" y="210" width="50" height="48" as="geometry" />
        </mxCell>
        <mxCell id="wuafn8Rh87BKBdAyfIPy-39" value="" style="endArrow=classic;startArrow=classic;html=1;rounded=0;" edge="1" parent="1">
          <mxGeometry width="50" height="50" relative="1" as="geometry">
            <mxPoint x="240" y="160" as="sourcePoint" />
            <mxPoint x="510" y="280" as="targetPoint" />
            <Array as="points">
              <mxPoint x="320" y="160" />
              <mxPoint x="320" y="280" />
            </Array>
          </mxGeometry>
        </mxCell>
        <mxCell id="wuafn8Rh87BKBdAyfIPy-42" value="" style="endArrow=classic;html=1;rounded=0;entryX=0;entryY=0;entryDx=0;entryDy=0;" edge="1" parent="1" target="wuafn8Rh87BKBdAyfIPy-18">
          <mxGeometry width="50" height="50" relative="1" as="geometry">
            <mxPoint x="320" y="280" as="sourcePoint" />
            <mxPoint x="340" y="330" as="targetPoint" />
            <Array as="points">
              <mxPoint x="320" y="380" />
            </Array>
          </mxGeometry>
        </mxCell>
        <mxCell id="wuafn8Rh87BKBdAyfIPy-43" value="Cluster Role" style="text;html=1;strokeColor=none;fillColor=none;align=center;verticalAlign=middle;whiteSpace=wrap;rounded=0;" vertex="1" parent="1">
          <mxGeometry x="355" y="254" width="85" height="30" as="geometry" />
        </mxCell>
      </root>
    </mxGraphModel>
  </diagram>
</mxfile>
